# xmcd
#
# Track frame offsets: 
#        150
#        24231
#        59827
#        76724
#        97738
#        134835
#        156202
#        176534
#        199649
#        221252
#        238017
#        267098
#
# Disc length: 3977 seconds
#
# Revision: 2
# Processed by: cddbd v1.5.2PL0 Copyright (c) Steve Scherf et al.
# Submitted via: ExactAudioCopy v0.99pb5
#
DISCID=9a0f870c
DTITLE=Various Artist - Look Up Sing Out ...Power 
DYEAR=2005
DGENRE=Gospel
TTITLE0=Because Of Who You Are - Vicki Yohe
TTITLE1=I Made A Step - Mighty Clouds of Joy
TTITLE2=Yes Lord - Darrel Petties
TTITLE3=We Acknowledge You - Karen Clark-Sheard
TTITLE4=Your Will - Darius Brooks
TTITLE5=For My Good - LaShun Pace
TTITLE6=Suddenly - New Birth Total Praise Choir
TTITLE7=Take My Life - Micah Stampley
TTITLE8=Fallen In Love - Darlene McCoy
TTITLE9=People Get Ready - Blind Boys of Alabama
TTITLE10=Jesus Will Pick You Up - The Williams Sisters
TTITLE11=Cant Nobody - Smokie Norful
EXTD=www.gerth.de 
EXTT0=
EXTT1=
EXTT2=
EXTT3=
EXTT4=
EXTT5=
EXTT6=
EXTT7=
EXTT8=
EXTT9=
EXTT10=
EXTT11=
PLAYORDER=
